<?xml version="1.0" encoding="UTF-8" standalone="no"?>
<svg width="300px" height="130px" viewBox="0 0 300 130" version="1.1" xmlns="http://www.w3.org/2000/svg" xmlns:xlink="http://www.w3.org/1999/xlink">
    <!-- Generator: Sketch 3.6.1 (26313) - http://www.bohemiancoding.com/sketch -->
    <title>OSGeo_project</title>
    <desc>Created with Sketch.</desc>
    <defs>
        <filter x="-50%" y="-50%" width="200%" height="200%" filterUnits="objectBoundingBox" id="filter-1">
            <feOffset dx="0.25" dy="0" in="SourceAlpha" result="shadowOffsetOuter1"></feOffset>
            <feGaussianBlur stdDeviation="0" in="shadowOffsetOuter1" result="shadowBlurOuter1"></feGaussianBlur>
            <feColorMatrix values="0 0 0 0 0.0235294118   0 0 0 0 0.419607843   0 0 0 0 0.694117647  0 0 0 0.7 0" in="shadowBlurOuter1" type="matrix" result="shadowMatrixOuter1"></feColorMatrix>
            <feMerge>
                <feMergeNode in="shadowMatrixOuter1"></feMergeNode>
                <feMergeNode in="SourceGraphic"></feMergeNode>
            </feMerge>
        </filter>
    </defs>
    <g id="Page-1" stroke="none" stroke-width="1" fill="none" fill-rule="evenodd">
        <g id="OSGeo_project">
            <path d="M242.544,108.648 C242.544,109.484004 242.364335,110.253996 242.005,110.958 C241.645665,111.662004 241.16167,112.266997 240.553,112.773 C239.94433,113.279003 239.244004,113.671332 238.452,113.95 C237.659996,114.228668 236.831338,114.368 235.966,114.368 C235.789999,114.368 235.592001,114.364333 235.372,114.357 C235.151999,114.349667 234.946668,114.331333 234.756,114.302 L233.678,120 L231.698,120 L234.514,105.15 C235.071336,105.120667 235.64333,105.098667 236.23,105.084 C236.81667,105.069333 237.439997,105.062 238.1,105.062 C239.566674,105.062 240.673996,105.384663 241.422,106.03 C242.170004,106.675337 242.544,107.547995 242.544,108.648 L242.544,108.648 Z M240.454,108.934 C240.454,108.25933 240.248669,107.720335 239.838,107.317 C239.427331,106.913665 238.723338,106.712 237.726,106.712 C237.388665,106.712 237.102668,106.715667 236.868,106.723 C236.633332,106.730333 236.406001,106.741333 236.186,106.756 L235.086,112.586 C235.379335,112.644667 235.775331,112.674 236.274,112.674 C236.831336,112.674 237.362997,112.578668 237.869,112.388 C238.375003,112.197332 238.818665,111.937002 239.2,111.607 C239.581335,111.276998 239.885666,110.884669 240.113,110.43 C240.340334,109.975331 240.454,109.476669 240.454,108.934 L240.454,108.934 Z M250.132,110.782 C249.618664,110.635333 249.112669,110.763665 248.614,111.167 C248.115331,111.570335 247.649669,112.116663 247.217,112.806 C246.784331,113.495337 246.406668,114.265329 246.084,115.116 C245.761332,115.966671 245.526667,116.77333 245.38,117.536 L244.918,120 L242.982,120 L244.082,114.302 C244.243334,113.421996 244.404666,112.549338 244.566,111.684 C244.727334,110.818662 244.888666,109.946004 245.05,109.066 L246.942,109.066 C246.854,109.535336 246.725668,110.08533 246.557,110.716 C246.388332,111.34667 246.142668,112.138662 245.82,113.092 L245.864,113.114 C246.172002,112.453997 246.487332,111.841669 246.81,111.277 C247.132668,110.712331 247.480998,110.239335 247.855,109.858 C248.229002,109.476665 248.635998,109.194334 249.076,109.011 C249.516002,108.827666 249.999997,108.78 250.528,108.868 L250.132,110.782 Z M260.8,112.806 C260.8,113.935339 260.620335,114.954662 260.261,115.864 C259.901665,116.773338 259.425003,117.550663 258.831,118.196 C258.236997,118.841337 257.555004,119.336332 256.785,119.681 C256.014996,120.025668 255.219337,120.198 254.398,120.198 C253.019326,120.198 252.007337,119.864337 251.362,119.197 C250.716663,118.529663 250.394,117.56534 250.394,116.304 C250.394,115.218661 250.555332,114.221338 250.878,113.312 C251.200668,112.402662 251.647997,111.618003 252.22,110.958 C252.792003,110.297997 253.462996,109.784668 254.233,109.418 C255.003004,109.051332 255.835329,108.868 256.73,108.868 C257.44867,108.868 258.064664,108.963332 258.578,109.154 C259.091336,109.344668 259.512998,109.615998 259.843,109.968 C260.173002,110.320002 260.414999,110.737998 260.569,111.222 C260.723001,111.706002 260.8,112.233997 260.8,112.806 L260.8,112.806 Z M258.732,113.026 C258.732,112.219329 258.545002,111.603335 258.171,111.178 C257.796998,110.752665 257.214004,110.54 256.422,110.54 C255.820664,110.54 255.274336,110.693998 254.783,111.002 C254.291664,111.310002 253.870002,111.716997 253.518,112.223 C253.165998,112.729003 252.894668,113.30833 252.704,113.961 C252.513332,114.61367 252.418,115.284663 252.418,115.974 C252.418,116.795337 252.593998,117.422331 252.946,117.855 C253.298002,118.287669 253.891996,118.504 254.728,118.504 C255.256003,118.504 255.761998,118.368335 256.246,118.097 C256.730002,117.825665 257.155332,117.448002 257.522,116.964 C257.888669,116.479998 258.181999,115.90067 258.402,115.226 C258.622001,114.55133 258.732,113.818004 258.732,113.026 L258.732,113.026 Z M267.398,105.524 C267.398,105.920002 267.262335,106.246332 266.991,106.503 C266.719665,106.759668 266.400669,106.888 266.034,106.888 C265.667332,106.888 265.370334,106.770668 265.143,106.536 C264.915666,106.301332 264.802,106.015335 264.802,105.678 C264.802,105.281998 264.937665,104.955668 265.209,104.699 C265.480335,104.442332 265.791998,104.314 266.144,104.314 C266.510669,104.314 266.811332,104.434999 267.046,104.677 C267.280668,104.919001 267.398,105.201332 267.398,105.524 L267.398,105.524 Z M264.054,121.364 C263.921999,122.053337 263.742334,122.661997 263.515,123.19 C263.287666,123.718003 262.998002,124.157998 262.646,124.51 C262.293998,124.862002 261.865003,125.129666 261.359,125.313 C260.852997,125.496334 260.255337,125.588 259.566,125.588 C259.023331,125.588 258.554002,125.529334 258.158,125.412 L258.554,123.696 C258.759334,123.769334 258.971999,123.828 259.192,123.872 C259.412001,123.916 259.609999,123.938 259.786,123.938 C260.152669,123.938 260.464332,123.886667 260.721,123.784 C260.977668,123.681333 261.193999,123.516334 261.37,123.289 C261.546001,123.061666 261.696333,122.757335 261.821,122.376 C261.945667,121.994665 262.066666,121.525336 262.184,120.968 L264.472,109.066 L266.408,109.066 L264.054,121.364 Z M277.186,111.354 C277.186,113.730012 274.82469,115.005999 270.102,115.182 C270.072667,115.343334 270.047,115.544999 270.025,115.787 C270.003,116.029001 269.992,116.252666 269.992,116.458 C269.992,116.883335 270.032333,117.231665 270.113,117.503 C270.193667,117.774335 270.325666,117.990666 270.509,118.152 C270.692334,118.313334 270.934332,118.427 271.235,118.493 C271.535668,118.559 271.905998,118.592 272.346,118.592 C272.859336,118.592 273.379997,118.537001 273.908,118.427 C274.436003,118.316999 274.934664,118.166668 275.404,117.976 L275.47,119.516 C274.912664,119.736001 274.31867,119.904666 273.688,120.022 C273.05733,120.139334 272.38267,120.198 271.664,120.198 C270.40266,120.198 269.475003,119.919336 268.881,119.362 C268.286997,118.804664 267.99,117.902673 267.99,116.656 C267.99,115.599995 268.132999,114.599005 268.419,113.653 C268.705001,112.706995 269.108331,111.878337 269.629,111.167 C270.149669,110.455663 270.776663,109.894669 271.51,109.484 C272.243337,109.073331 273.064662,108.868 273.974,108.868 C274.56067,108.868 275.055665,108.937666 275.459,109.077 C275.862335,109.216334 276.192332,109.399666 276.449,109.627 C276.705668,109.854334 276.892666,110.118332 277.01,110.419 C277.127334,110.719668 277.186,111.031332 277.186,111.354 L277.186,111.354 Z M275.228,111.596 C275.228,111.199998 275.092335,110.895668 274.821,110.683 C274.549665,110.470332 274.194002,110.364 273.754,110.364 C273.313998,110.364 272.914335,110.451999 272.555,110.628 C272.195665,110.804001 271.873001,111.045998 271.587,111.354 C271.300999,111.662002 271.055334,112.021331 270.85,112.432 C270.644666,112.842669 270.476001,113.275331 270.344,113.73 C272.045342,113.656666 273.284663,113.447668 274.062,113.103 C274.839337,112.758332 275.228,112.256003 275.228,111.596 L275.228,111.596 Z M286.6,110.936 C286.306665,110.803999 285.995002,110.701334 285.665,110.628 C285.334998,110.554666 284.979335,110.518 284.598,110.518 C283.908663,110.518 283.307336,110.693998 282.794,111.046 C282.280664,111.398002 281.855335,111.845331 281.518,112.388 C281.180665,112.930669 280.931334,113.535663 280.77,114.203 C280.608666,114.870337 280.528,115.511997 280.528,116.128 C280.528,116.421335 280.557333,116.703665 280.616,116.975 C280.674667,117.246335 280.788332,117.491999 280.957,117.712 C281.125668,117.932001 281.356665,118.107999 281.65,118.24 C281.943335,118.372001 282.331998,118.438 282.816,118.438 C283.241335,118.438 283.662998,118.394 284.081,118.306 C284.499002,118.218 284.876665,118.093334 285.214,117.932 L285.214,119.604 C284.817998,119.765334 284.367003,119.900999 283.861,120.011 C283.354997,120.121001 282.823336,120.176 282.266,120.176 C281.561996,120.176 280.964336,120.084334 280.473,119.901 C279.981664,119.717666 279.589335,119.464668 279.296,119.142 C279.002665,118.819332 278.790001,118.438002 278.658,117.998 C278.525999,117.557998 278.46,117.081336 278.46,116.568 C278.46,115.526661 278.602999,114.540338 278.889,113.609 C279.175001,112.677662 279.585664,111.86367 280.121,111.167 C280.656336,110.47033 281.312663,109.916669 282.09,109.506 C282.867337,109.095331 283.747328,108.89 284.73,108.89 C285.184669,108.89 285.598998,108.919333 285.973,108.978 C286.347002,109.036667 286.702665,109.117333 287.04,109.22 L286.6,110.936 Z M294.936,110.606 L291.966,110.606 L290.888,116.326 C290.726666,117.176671 290.715666,117.748665 290.855,118.042 C290.994334,118.335335 291.335331,118.482 291.878,118.482 C292.186002,118.482 292.460999,118.467333 292.703,118.438 C292.945001,118.408667 293.175999,118.364667 293.396,118.306 L293.264,119.956 C292.941332,120.029334 292.600335,120.084333 292.241,120.121 C291.881665,120.157667 291.540668,120.176 291.218,120.176 C290.660664,120.176 290.202335,120.106334 289.843,119.967 C289.483665,119.827666 289.212334,119.615001 289.029,119.329 C288.845666,119.042999 288.743,118.676336 288.721,118.229 C288.699,117.781664 288.746666,117.250003 288.864,116.634 L290.03,110.606 L287.808,110.606 L288.116,109.066 L290.316,109.066 L290.998,105.524 L293.044,105.062 L292.274,109.066 L295.244,109.066 L294.936,110.606 Z" id="Project" fill="#066BB1" filter="url(#filter-1)"></path>
            <path d="M102.65625,74.2636719 C102.65625,67.2245742 104.421532,61.3366122 107.952148,56.5996094 C111.482765,51.8626065 116.247366,49.4941406 122.246094,49.4941406 C128.99743,49.4941406 134.171531,51.6744574 137.768555,56.0351562 C141.365578,60.3958551 143.164062,66.4719662 143.164062,74.2636719 C143.164062,82.2545972 141.360044,88.5133237 137.751953,93.0400391 C134.143862,97.5667544 128.975294,99.8300781 122.246094,99.8300781 C116.114553,99.8300781 111.316749,97.439477 107.852539,92.6582031 C104.388329,87.8769292 102.65625,81.7454801 102.65625,74.2636719 L102.65625,74.2636719 Z M109.628906,74.2636719 C109.628906,79.8418248 110.730132,84.5012834 112.932617,88.2421875 C115.135102,91.9830916 118.239563,93.8535156 122.246094,93.8535156 C126.783877,93.8535156 130.242501,92.138038 132.62207,88.7070312 C135.00164,85.2760245 136.191406,80.4616195 136.191406,74.2636719 C136.191406,61.7349634 131.543015,55.4707031 122.246094,55.4707031 C118.128886,55.4707031 114.996756,57.152978 112.849609,60.5175781 C110.702463,63.8821783 109.628906,68.4641637 109.628906,74.2636719 L109.628906,74.2636719 Z M148.639375,96.7753906 L151.063203,90.6660156 C152.302793,91.5735722 153.846723,92.3317027 155.695039,92.9404297 C157.543356,93.5491567 159.197961,93.8535156 160.658906,93.8535156 C163.248763,93.8535156 165.329471,93.1451894 166.901094,91.7285156 C168.472716,90.3118419 169.258516,88.5078235 169.258516,86.3164062 C169.258516,84.6783772 168.821346,83.1565825 167.946992,81.7509766 C167.072639,80.3453706 164.875721,78.8125083 161.356172,77.1523438 L157.438203,75.3261719 C154.117874,73.776685 151.799212,71.9394638 150.482148,69.8144531 C149.165085,67.6894425 148.506562,65.1328274 148.506562,62.1445312 C148.506562,58.5143048 149.790404,55.5039182 152.358125,53.1132812 C154.925846,50.7226443 158.22399,49.5273438 162.252656,49.5273438 C167.631589,49.5273438 171.372437,50.401684 173.475312,52.1503906 L171.516328,57.9277344 C170.630907,57.2858041 169.28066,56.6660186 167.465547,56.0683594 C165.650434,55.4707001 163.968159,55.171875 162.418672,55.171875 C160.160848,55.171875 158.384499,55.8137957 157.08957,57.0976562 C155.794642,58.3815168 155.147187,60.0305889 155.147187,62.0449219 C155.147187,63.2845114 155.379607,64.4134064 155.844453,65.4316406 C156.309299,66.4498749 156.956754,67.3020799 157.786836,67.9882812 C158.616918,68.6744826 160.315794,69.6373636 162.883516,70.8769531 L166.867891,72.7695312 C170.18822,74.3411537 172.517949,76.2171115 173.857148,78.3974609 C175.196348,80.5778104 175.865937,83.3502436 175.865937,86.7148438 C175.865937,90.3672058 174.399481,93.4661331 171.466523,96.0117188 C168.533566,98.5573044 164.610103,99.8300781 159.696016,99.8300781 C155.379588,99.8300781 151.694078,98.8118591 148.639375,96.7753906 L148.639375,96.7753906 Z M217.267031,53.7441406 L214.511172,59.2226562 C211.168707,56.7434772 207.892698,55.5039062 204.683047,55.5039062 C199.591876,55.5039062 195.574338,57.2968571 192.630312,60.8828125 C189.686287,64.4687679 188.214297,69.2167673 188.214297,75.1269531 C188.214297,80.7493771 189.658618,85.2760245 192.547305,88.7070312 C195.435991,92.138038 199.370522,93.8535156 204.351016,93.8535156 C207.8927,93.8535156 210.759208,92.7910263 212.950625,90.6660156 L212.950625,79.2773438 L206.210391,79.2773438 L206.210391,73.6328125 L219.59125,73.6328125 L219.59125,94.8164062 C217.820408,96.3216221 215.352334,97.5335241 212.186953,98.4521484 C209.021573,99.3707728 205.944781,99.8300781 202.956484,99.8300781 C196.24942,99.8300781 190.953574,97.5556868 187.068789,93.0068359 C183.184004,88.4579851 181.241641,82.4095429 181.241641,74.8613281 C181.241641,67.3352488 183.372153,61.2314687 187.633242,56.5498047 C191.894331,51.8681407 197.643948,49.5273438 204.882266,49.5273438 C209.951301,49.5273438 214.079515,50.9329287 217.267031,53.7441406 L217.267031,53.7441406 Z M259.033359,81.8339844 L233.400547,81.8339844 C233.400547,85.9954635 234.540509,89.1939992 236.820469,91.4296875 C238.834802,93.3776139 241.42462,94.3515625 244.59,94.3515625 C248.198091,94.3515625 251.208478,93.3001407 253.62125,91.1972656 L256.2775,95.7460938 C255.303537,96.720057 253.809411,97.5611944 251.795078,98.2695312 C249.271628,99.1992234 246.460458,99.6640625 243.361484,99.6640625 C238.890108,99.6640625 235.093922,98.1478016 231.972812,95.1152344 C228.497535,91.7727697 226.759922,87.2793251 226.759922,81.6347656 C226.759922,75.7688509 228.541805,71.0651219 232.105625,67.5234375 C235.293141,64.3580571 239.067192,62.7753906 243.427891,62.7753906 C248.496926,62.7753906 252.470194,64.2031107 255.347812,67.0585938 C258.136889,69.8033991 259.531406,73.4446388 259.531406,77.9824219 C259.531406,79.3769601 259.365392,80.6608014 259.033359,81.8339844 L259.033359,81.8339844 Z M243.726719,68.0878906 C240.915507,68.0878906 238.558108,68.9954336 236.654453,70.8105469 C234.83934,72.537118 233.810053,74.684232 233.566562,77.2519531 L253.256016,77.2519531 C253.256016,74.7063675 252.459149,72.5813887 250.865391,70.8769531 C249.116684,69.0175688 246.73715,68.0878906 243.726719,68.0878906 L243.726719,68.0878906 Z M263.877812,81.1367188 C263.877812,75.647108 265.355337,71.2145351 268.31043,67.8388672 C271.265523,64.4631993 275.155783,62.7753906 279.981328,62.7753906 C285.072499,62.7753906 289.023632,64.3967937 291.834844,67.6396484 C294.646056,70.8825032 296.051641,75.3814816 296.051641,81.1367188 C296.051641,86.8698203 294.612853,91.390934 291.735234,94.7001953 C288.857616,98.0094567 284.939686,99.6640625 279.981328,99.6640625 C274.912292,99.6640625 270.96116,97.9928553 268.127812,94.6503906 C265.294465,91.307926 263.877812,86.8034138 263.877812,81.1367188 L263.877812,81.1367188 Z M270.518437,81.1367188 C270.518437,90.0573363 273.672703,94.5175781 279.981328,94.5175781 C282.925353,94.5175781 285.232947,93.3222776 286.90418,90.9316406 C288.575412,88.5410037 289.411016,85.2760624 289.411016,81.1367188 C289.411016,72.3267789 286.267818,67.921875 279.981328,67.921875 C277.10371,67.921875 274.807183,69.0950404 273.09168,71.4414062 C271.376176,73.7877721 270.518437,77.0195107 270.518437,81.1367188 L270.518437,81.1367188 Z" id="OSGeo" fill="#5BB358"></path>
            <g id="Compass" transform="translate(3.000000, 4.000000)">
                <path d="M51.2319971,113.368 C25.031997,112.453 4.53199757,90.4699985 5.44699846,64.2689993 C6.36099841,38.0649979 28.3449986,17.5689969 54.5459962,18.4839979 C72.6579952,19.1169979 88.0429969,29.8189983 95.5149969,45.0209994 C96.6649968,45.0569994 97.8169968,45.0599994 98.9759967,44.8459994 C91.2249961,27.9790009 74.4749965,16.0000004 54.6570001,15.308001 C26.667001,14.3300009 3.1870002,36.2270023 2.20899958,64.219002 C1.2329996,92.205003 23.1269983,115.687002 51.1179987,116.665003 C58.7109984,116.929003 65.9689981,115.499003 72.5389976,112.731003 C72.2219976,111.748003 72.0249977,110.623003 71.6979976,109.516003 C65.4390013,112.223003 58.4999985,113.621006 51.2319971,113.368 C51.2319971,113.368 58.4999985,113.621006 51.2319971,113.368 L51.2319971,113.368" id="Shape" fill="#5AB358"></path>
                <circle id="Oval" fill="#AFD37E" cx="52.5" cy="66.5" r="31.5"></circle>
                <path d="M58.4940007,49.0610018 L23.3270001,0.407000065 L35.8730018,59.8760007 L0.378999949,89.2380008 L46.5150003,82.5879991 L75.8840042,117.407 L69.4110045,71.8590026 L104.593004,42.5480012 L58.4940007,49.0610018 Z" id="Shape" stroke="#99C66B" stroke-width="2" fill="#FFFFFF"></path>
                <path d="M55.605999,62.663002 L73.3710022,56.6240005 L57.1430016,65.7720032 L66.9830017,70.9039993 L56.1230011,69.1719971 L62.4499969,87.5540009 L52.7070007,70.9869995 L47.3349991,80.4029999 L48.9760017,69.6429977 L31.3880005,75.5149994 L47.5610008,66.0820007 L37.3880005,60.4309998 L49.105999,62.8059998 L43.3260002,45.0219994 L52.2550011,61.4309998 L57.6689987,51.4510002" id="Shape" fill="#4DA146"></path>
            </g>
        </g>
    </g>
</svg>